<svg xmlns="http://www.w3.org/2000/svg" width="26.998" height="22.281" viewBox="0 0 26.998 22.281"><path d="M.964,8.311h25.07A.938.938,0,0,0,27,7.4V5.128a.938.938,0,0,0-.964-.909H.964A.938.938,0,0,0,0,5.128V7.4A.938.938,0,0,0,.964,8.311Zm0,9.094h25.07A.938.938,0,0,0,27,16.5V14.223a.938.938,0,0,0-.964-.909H.964A.938.938,0,0,0,0,14.223V16.5A.938.938,0,0,0,.964,17.406Zm0,9.094h25.07A.938.938,0,0,0,27,25.591V23.317a.938.938,0,0,0-.964-.909H.964A.938.938,0,0,0,0,23.317v2.274A.938.938,0,0,0,.964,26.5Z" transform="translate(0 -4.219)" fill="#0c4461"/></svg>