<svg xmlns="http://www.w3.org/2000/svg" width="31.85" height="23" viewBox="0 0 31.85 23"><path d="M27.908,14.375H11.7l.362,1.438H26.9c.852,0,1.483.642,1.294,1.317l-.305,1.091a2.531,2.531,0,0,1,1.746,2.264A2.862,2.862,0,0,1,26.5,23a2.874,2.874,0,0,1-3.05-2.446,2.293,2.293,0,0,1,.929-1.866H12.783a2.306,2.306,0,0,1,.93,1.8c0,1.429-1.467,2.58-3.244,2.513A2.868,2.868,0,0,1,7.525,20.62,2.449,2.449,0,0,1,9.076,18.3L5.191,2.875H1.327A1.222,1.222,0,0,1,0,1.8V1.078A1.222,1.222,0,0,1,1.327,0H7A1.291,1.291,0,0,1,8.3.862L8.8,2.875H30.522c.852,0,1.483.642,1.294,1.317L29.2,13.536A1.3,1.3,0,0,1,27.908,14.375ZM22.56,7.547H19.906V5.75a.815.815,0,0,0-.885-.719h-.885a.815.815,0,0,0-.885.719v1.8H14.6a.815.815,0,0,0-.885.719v.719A.815.815,0,0,0,14.6,9.7h2.654v1.8a.815.815,0,0,0,.885.719h.885a.815.815,0,0,0,.885-.719V9.7H22.56a.815.815,0,0,0,.885-.719V8.266A.815.815,0,0,0,22.56,7.547Z" fill="#0c4461"/></svg>