<svg xmlns="http://www.w3.org/2000/svg" width="264" height="33" viewBox="0 0 264 33"><g transform="translate(-56 -1386)"><g transform="translate(56 1386)" fill="#fff" stroke="#0c4461" stroke-width="3"><rect width="264" height="33" rx="3" stroke="none"/><rect x="1.5" y="1.5" width="261" height="30" rx="1.5" fill="none"/></g><text transform="translate(171 1407)" fill="#0c4461" stroke="#0c4461" stroke-width="1" font-size="17" font-family="CambriaMath, Cambria Math" letter-spacing="0.06em"><tspan x="-90.113" y="0">LEAVE YOUR REVIEW </tspan></text><g transform="translate(264.289 1388.682)"><path d="M14.264,6H5.5C4.121,6,3,6.812,3,7.813V20.5c0,1,1.121,1.813,2.5,1.813H23.026c1.382,0,2.5-.812,2.5-1.813V14.159" transform="translate(0 0)" fill="none" stroke="#0c4461" stroke-linecap="round" stroke-linejoin="round" stroke-width="3"/><path d="M25.384,3.42a3.337,3.337,0,0,1,3.824,0,1.729,1.729,0,0,1,0,2.907L17.1,15.531,12,16.5l1.275-3.876Z" transform="translate(-1.471 1.5)" fill="none" stroke="#0c4461" stroke-linecap="round" stroke-linejoin="round" stroke-width="3"/></g></g></svg>