<svg xmlns="http://www.w3.org/2000/svg" width="386.333" height="30.051" viewBox="0 0 386.333 30.051"><g transform="translate(6 -1114)"><path d="M1348,372.609s54.715-31.509,93-29.934,61.881,31.509,101.907,29.934,74.96-29.934,104.544-29.934,86.882,29.934,86.882,29.934Z" transform="translate(-1354 771.382)" fill="#0c4461"/><path d="M2.362,2.25h6.3a2.36,2.36,0,0,1,2.362,2.357v6.286A2.36,2.36,0,0,1,8.662,13.25H4.725v3.143a3.149,3.149,0,0,0,3.15,3.143h.394A1.177,1.177,0,0,1,9.45,20.714v2.357A1.177,1.177,0,0,1,8.269,24.25H7.875A7.864,7.864,0,0,1,0,16.393V4.607A2.36,2.36,0,0,1,2.362,2.25Zm14.175,0h6.3A2.36,2.36,0,0,1,25.2,4.607v6.286a2.36,2.36,0,0,1-2.362,2.357H18.9v3.143a3.149,3.149,0,0,0,3.15,3.143h.394a1.177,1.177,0,0,1,1.181,1.179v2.357a1.177,1.177,0,0,1-1.181,1.179H22.05a7.864,7.864,0,0,1-7.875-7.857V4.607A2.36,2.36,0,0,1,16.537,2.25Z" transform="translate(69.8 1116.95)" fill="#fff"/><path d="M22.656,2.25h-6.25a2.351,2.351,0,0,0-2.344,2.357v6.286a2.351,2.351,0,0,0,2.344,2.357h3.906v3.143a3.137,3.137,0,0,1-3.125,3.143H16.8a1.172,1.172,0,0,0-1.172,1.179v2.357A1.172,1.172,0,0,0,16.8,24.25h.391A7.833,7.833,0,0,0,25,16.393V4.607A2.351,2.351,0,0,0,22.656,2.25Zm-14.062,0H2.344A2.351,2.351,0,0,0,0,4.607v6.286A2.351,2.351,0,0,0,2.344,13.25H6.25v3.143a3.137,3.137,0,0,1-3.125,3.143H2.734a1.172,1.172,0,0,0-1.172,1.179v2.357A1.172,1.172,0,0,0,2.734,24.25h.391a7.833,7.833,0,0,0,7.813-7.857V4.607A2.351,2.351,0,0,0,8.594,2.25Z" transform="translate(283 1116.909)" fill="#fff"/></g></svg>